<svg width="36" height="36" viewBox="0 0 36 36" fill="none" xmlns="http://www.w3.org/2000/svg">
<path d="M7.3457 3.32751H28.6538C28.9451 3.32751 29.1812 3.09148 29.1812 2.80017C29.1812 2.50887 28.9451 2.27283 28.6538 2.27283H7.3457C7.05447 2.27283 6.81836 2.50887 6.81836 2.80017C6.81836 3.09148 7.0544 3.32751 7.3457 3.32751Z" fill="#878787"/>
<path d="M29.1811 5.073C29.1811 4.78169 28.945 4.54565 28.6538 4.54565H7.3457C7.05447 4.54565 6.81836 4.78169 6.81836 5.073C6.81836 5.3643 7.05447 5.60034 7.3457 5.60034H28.6538C28.9451 5.60034 29.1811 5.3643 29.1811 5.073Z" fill="#878787"/>
<path d="M27.4236 15.6263H5.03227V14.0224C5.03227 13.9216 5.11432 13.8396 5.21508 13.8396H6.9968C7.28803 13.8396 7.52414 13.6036 7.52414 13.3123C7.52414 13.021 7.28803 12.7849 6.9968 12.7849H5.21508C4.5327 12.7849 3.97758 13.3401 3.97758 14.0224V15.6263H1.94766C1.45526 15.6263 1.05469 15.2254 1.05469 14.7326V1.94766C1.05469 1.45526 1.45526 1.05469 1.94766 1.05469H29.2352C29.5265 1.05469 29.7626 0.818648 29.7626 0.527344C29.7626 0.236039 29.5265 0 29.2352 0H1.94766C0.873703 0 0 0.873703 0 1.94766V14.7326C0 15.8069 0.873703 16.6809 1.94766 16.6809H27.4236C27.7148 16.6809 27.9509 16.4449 27.9509 16.1536C27.9509 15.8623 27.7149 15.6263 27.4236 15.6263Z" fill="#878787"/>
<path d="M34.0521 0H31.696C31.4047 0 31.1686 0.236039 31.1686 0.527344C31.1686 0.818648 31.4047 1.05469 31.696 1.05469H34.0521C34.5445 1.05469 34.9451 1.45526 34.9451 1.94766V14.7326C34.9451 15.2253 34.5445 15.6263 34.0521 15.6263H32.0222V14.0224C32.0222 13.3401 31.467 12.7849 30.7847 12.7849H9.45752C9.16628 12.7849 8.93018 13.021 8.93018 13.3123C8.93018 13.6036 9.16628 13.8396 9.45752 13.8396H30.7847C30.8855 13.8396 30.9675 13.9216 30.9675 14.0224V15.6263H29.8843C29.5931 15.6263 29.3569 15.8624 29.3569 16.1537C29.3569 16.445 29.5931 16.681 29.8843 16.681H34.0521C35.1261 16.681 35.9998 15.807 35.9998 14.7326V1.94766C35.9998 0.873703 35.1261 0 34.0521 0V0Z" fill="#878787"/>
<path d="M30.3586 11.5667C31.276 11.5667 32.0224 10.8203 32.0224 9.90294C32.0224 8.9855 31.2761 8.23914 30.3586 8.23914C29.4412 8.23914 28.6948 8.9855 28.6948 9.90294C28.6948 10.8203 29.4413 11.5667 30.3586 11.5667ZM30.3586 9.29382C30.6944 9.29382 30.9677 9.56713 30.9677 9.90294C30.9677 10.2388 30.6945 10.512 30.3586 10.512C30.0227 10.512 29.7495 10.2388 29.7495 9.90294C29.7495 9.56713 30.0228 9.29382 30.3586 9.29382Z" fill="#878787"/>
<path d="M24.1489 9.90294C24.1489 10.8203 24.8953 11.5667 25.8127 11.5667C26.7302 11.5667 27.4765 10.8203 27.4765 9.90294C27.4765 8.9855 26.7302 8.23914 25.8127 8.23914C24.8953 8.23914 24.1489 8.9855 24.1489 9.90294ZM26.4218 9.90294C26.4218 10.2388 26.1485 10.512 25.8127 10.512C25.4768 10.512 25.2035 10.2388 25.2035 9.90294C25.2035 9.56713 25.4768 9.29382 25.8127 9.29382C26.1485 9.29382 26.4218 9.56706 26.4218 9.90294Z" fill="#878787"/>
<path d="M18 26.4825C18.2912 26.4825 18.5273 26.2464 18.5273 25.9551V18.8524C18.5273 18.5611 18.2912 18.325 18 18.325C17.7088 18.325 17.4727 18.5611 17.4727 18.8524V25.9551C17.4727 26.2463 17.7088 26.4825 18 26.4825Z" fill="#878787"/>
<path d="M25.8431 24.5345C25.8431 24.2432 25.607 24.0072 25.3157 24.0072C25.0245 24.0072 24.7884 24.2432 24.7884 24.5345C24.7884 25.0271 24.3877 25.4278 23.8951 25.4278C23.4027 25.4278 23.002 25.0271 23.002 24.5345V18.8524C23.002 18.5611 22.7658 18.3251 22.4746 18.3251C22.1834 18.3251 21.9473 18.5611 21.9473 18.8524V24.5345C21.9473 25.6086 22.8211 26.4824 23.8951 26.4824C24.9692 26.4824 25.8431 25.6086 25.8431 24.5345Z" fill="#878787"/>
<path d="M13.5252 18.325C13.234 18.325 12.9979 18.5611 12.9979 18.8524V24.5344C12.9979 25.027 12.5971 25.4277 12.1047 25.4277C11.6121 25.4277 11.2114 25.027 11.2114 24.5344C11.2114 24.2431 10.9753 24.0071 10.6841 24.0071C10.3928 24.0071 10.1567 24.2431 10.1567 24.5344C10.1567 25.6085 11.0306 26.4824 12.1047 26.4824C13.1787 26.4824 14.0525 25.6085 14.0525 24.5344V18.8524C14.0525 18.5611 13.8164 18.325 13.5252 18.325Z" fill="#878787"/>
<path d="M21.1962 31.7491H20.9007C21.0633 31.5422 21.0495 31.2419 20.8587 31.0512C20.6528 30.8453 20.3189 30.8453 20.113 31.0513L19.4152 31.7491H18.5273V30.8613L19.2251 30.1634C19.328 30.0604 19.3796 29.9254 19.3796 29.7905C19.3796 29.6556 19.3281 29.5206 19.2251 29.4176C19.0344 29.2269 18.7342 29.2132 18.5273 29.3756V29.0802C18.5273 28.7889 18.2911 28.5529 17.9999 28.5529C17.7087 28.5529 17.4726 28.7889 17.4726 29.0802V29.3756C17.2656 29.2132 16.9654 29.2269 16.7747 29.4176C16.5688 29.6236 16.5688 29.9574 16.7747 30.1634L17.4726 30.8612V31.7491H16.5847L15.8869 31.0512C15.681 30.8453 15.3471 30.8452 15.1411 31.0511C15.0382 31.1541 14.9867 31.2891 14.9867 31.4241C14.9867 31.539 15.0244 31.6538 15.0992 31.7491H14.8037C14.5125 31.7491 14.2764 31.9851 14.2764 32.2764C14.2764 32.5677 14.5125 32.8037 14.8037 32.8037H15.0992C14.9367 33.0107 14.9504 33.311 15.1411 33.5017C15.2441 33.6046 15.3791 33.6561 15.514 33.6561C15.6489 33.6561 15.7839 33.6046 15.8869 33.5016L16.5847 32.8037H17.4726V33.6915L16.7747 34.3894C16.6718 34.4924 16.6202 34.6274 16.6202 34.7623C16.6202 34.8972 16.6717 35.0322 16.7747 35.1352C16.9654 35.3258 17.2656 35.3396 17.4726 35.1772V35.4726C17.4726 35.7639 17.7087 35.9999 17.9999 35.9999C18.2911 35.9999 18.5273 35.7639 18.5273 35.4726V35.1772C18.6225 35.252 18.7373 35.2897 18.8522 35.2897C18.9872 35.2897 19.1222 35.2382 19.2251 35.1353C19.431 34.9293 19.431 34.5954 19.2251 34.3895L18.5273 33.6916V32.8039H19.4152L20.1129 33.5017C20.2159 33.6047 20.3509 33.6562 20.4858 33.6562C20.6207 33.6562 20.7557 33.6047 20.8587 33.5018C20.9616 33.3988 21.0131 33.2639 21.0131 33.1289C21.0131 33.0139 20.9754 32.8991 20.9006 32.8039H21.1961C21.4873 32.8039 21.7234 32.5678 21.7234 32.2765C21.7234 31.9852 21.4874 31.7491 21.1962 31.7491Z" fill="#878787"/>
<path d="M26.3505 28.5653C26.1446 28.3594 25.8107 28.3594 25.6048 28.5653L25.1741 28.996L24.7435 28.5653C24.5375 28.3594 24.2036 28.3594 23.9977 28.5653C23.7918 28.7713 23.7918 29.1052 23.9977 29.3111L24.4284 29.7418L23.9977 30.1724C23.7918 30.3784 23.7918 30.7123 23.9977 30.9182C24.1007 31.0212 24.2357 31.0726 24.3706 31.0726C24.5055 31.0726 24.6405 31.0212 24.7435 30.9182L25.1741 30.4876L25.6048 30.9182C25.7077 31.0212 25.8427 31.0726 25.9776 31.0726C26.1126 31.0726 26.2476 31.0212 26.3505 30.9182C26.5565 30.7122 26.5565 30.3784 26.3505 30.1724L25.9198 29.7418L26.3505 29.3111C26.5565 29.1051 26.5565 28.7712 26.3505 28.5653Z" fill="#878787"/>
<path d="M12.0029 28.5653C11.7969 28.3594 11.463 28.3594 11.2571 28.5653L10.8265 28.996L10.3958 28.5653C10.1899 28.3594 9.85594 28.3594 9.65006 28.5653C9.44412 28.7713 9.44412 29.1052 9.65006 29.3111L10.0807 29.7418L9.65006 30.1724C9.44412 30.3784 9.44412 30.7123 9.65006 30.9182C9.753 31.0212 9.888 31.0726 10.0229 31.0726C10.1579 31.0726 10.2929 31.0212 10.3958 30.9182L10.8265 30.4876L11.2571 30.9182C11.3601 31.0212 11.4951 31.0726 11.63 31.0726C11.7649 31.0726 11.8999 31.0212 12.0029 30.9182C12.2088 30.7122 12.2088 30.3784 12.0029 30.1724L11.5722 29.7418L12.0029 29.3111C12.2088 29.1051 12.2088 28.7712 12.0029 28.5653Z" fill="#878787"/>
</svg>
