<svg width="36" height="36" viewBox="0 0 36 36" fill="none" xmlns="http://www.w3.org/2000/svg">
<path d="M32.5948 32.1081H3.40558C2.76069 32.1073 2.14244 31.8508 1.68644 31.3948C1.23044 30.9388 0.973917 30.3205 0.973145 29.6756V3.89184C0.973917 3.24696 1.23044 2.62871 1.68644 2.17271C2.14244 1.71671 2.76069 1.46018 3.40558 1.45941H32.5948C33.2397 1.46018 33.8579 1.71671 34.3139 2.17271C34.7699 2.62871 35.0264 3.24696 35.0272 3.89184V29.6756C35.0264 30.3205 34.7699 30.9388 34.3139 31.3948C33.8579 31.8508 33.2397 32.1073 32.5948 32.1081ZM3.40558 2.43238C3.0185 2.43238 2.64729 2.58615 2.37358 2.85985C2.09988 3.13355 1.94612 3.50477 1.94612 3.89184V29.6756C1.94612 30.0627 2.09988 30.4339 2.37358 30.7076C2.64729 30.9813 3.0185 31.1351 3.40558 31.1351H32.5948C32.9818 31.1351 33.3531 30.9813 33.6268 30.7076C33.9005 30.4339 34.0542 30.0627 34.0542 29.6756V3.89184C34.0542 3.50477 33.9005 3.13355 33.6268 2.85985C33.3531 2.58615 32.9818 2.43238 32.5948 2.43238H3.40558Z" fill="#878787"/>
<path d="M5.83756 20.1892C5.70854 20.1892 5.5848 20.1379 5.49356 20.0467C5.40233 19.9554 5.35107 19.8317 5.35107 19.7027V13.8648C5.35107 13.7358 5.40233 13.6121 5.49356 13.5208C5.5848 13.4296 5.70854 13.3784 5.83756 13.3784C5.96659 13.3784 6.09033 13.4296 6.18156 13.5208C6.27279 13.6121 6.32405 13.7358 6.32405 13.8648V19.7027C6.32405 19.8317 6.27279 19.9554 6.18156 20.0467C6.09033 20.1379 5.96659 20.1892 5.83756 20.1892Z" fill="#878787"/>
<path d="M30.1619 27.7297H5.83756C5.70854 27.7297 5.5848 27.6785 5.49356 27.5872C5.40233 27.496 5.35107 27.3723 5.35107 27.2432V23.5946C5.35107 23.4656 5.40233 23.3418 5.49356 23.2506C5.5848 23.1594 5.70854 23.1081 5.83756 23.1081C5.96658 23.1081 6.09032 23.1594 6.18156 23.2506C6.27279 23.3418 6.32405 23.4656 6.32405 23.5946V26.7567H29.6754V6.8108H6.32405V9.97296C6.32405 10.102 6.27279 10.2257 6.18156 10.317C6.09032 10.4082 5.96658 10.4595 5.83756 10.4595C5.70854 10.4595 5.5848 10.4082 5.49356 10.317C5.40233 10.2257 5.35107 10.102 5.35107 9.97296V6.32432C5.35107 6.19529 5.40233 6.07155 5.49356 5.98032C5.5848 5.88908 5.70854 5.83783 5.83756 5.83783H30.1619C30.2909 5.83783 30.4146 5.88908 30.5059 5.98032C30.5971 6.07155 30.6484 6.19529 30.6484 6.32432V27.2432C30.6484 27.3723 30.5971 27.496 30.5059 27.5872C30.4146 27.6785 30.2909 27.7297 30.1619 27.7297Z" fill="#878787"/>
<path d="M10.2163 34.5406H6.32438C6.19535 34.5406 6.07161 34.4893 5.98038 34.3981C5.88915 34.3069 5.83789 34.1831 5.83789 34.0541V31.6217C5.83789 31.4927 5.88915 31.3689 5.98038 31.2777C6.07161 31.1864 6.19535 31.1352 6.32438 31.1352H10.2163C10.3453 31.1352 10.469 31.1864 10.5603 31.2777C10.6515 31.3689 10.7028 31.4927 10.7028 31.6217V34.0541C10.7028 34.1831 10.6515 34.3069 10.5603 34.3981C10.469 34.4893 10.3453 34.5406 10.2163 34.5406ZM6.81086 33.5676H9.72978V32.1082H6.81086V33.5676Z" fill="#878787"/>
<path d="M29.6757 34.5406H25.7838C25.6548 34.5406 25.5311 34.4893 25.4399 34.3981C25.3486 34.3069 25.2974 34.1831 25.2974 34.0541V31.6217C25.2974 31.4927 25.3486 31.3689 25.4399 31.2777C25.5311 31.1864 25.6548 31.1352 25.7838 31.1352H29.6757C29.8048 31.1352 29.9285 31.1864 30.0197 31.2777C30.111 31.3689 30.1622 31.4927 30.1622 31.6217V34.0541C30.1622 34.1831 30.111 34.3069 30.0197 34.3981C29.9285 34.4893 29.8048 34.5406 29.6757 34.5406ZM26.2703 33.5676H29.1892V32.1082H26.2703V33.5676Z" fill="#878787"/>
<path d="M6.54733 14.3513H5.12873C4.87069 14.3513 4.62321 14.2488 4.44074 14.0663C4.25827 13.8839 4.15576 13.6364 4.15576 13.3783V10.4594C4.15576 10.2014 4.25827 9.9539 4.44074 9.77143C4.62321 9.58896 4.87069 9.48645 5.12873 9.48645H6.54782C6.80586 9.48645 7.05334 9.58896 7.23581 9.77143C7.41828 9.9539 7.52079 10.2014 7.52079 10.4594V13.3783C7.52079 13.5062 7.49561 13.6327 7.44668 13.7508C7.39775 13.8689 7.32604 13.9762 7.23564 14.0665C7.14524 14.1569 7.03792 14.2285 6.91982 14.2774C6.80172 14.3263 6.67514 14.3514 6.54733 14.3513ZM6.54733 10.4594H5.12873V13.3783H6.54782L6.54733 10.4594Z" fill="#878787"/>
<path d="M6.54733 24.081H5.12873C4.87069 24.081 4.62321 23.9785 4.44074 23.7961C4.25827 23.6136 4.15576 23.3661 4.15576 23.1081V20.1892C4.15576 19.9311 4.25827 19.6836 4.44074 19.5012C4.62321 19.3187 4.87069 19.2162 5.12873 19.2162H6.54782C6.80586 19.2162 7.05334 19.3187 7.23581 19.5012C7.41828 19.6836 7.52079 19.9311 7.52079 20.1892V23.1081C7.52079 23.2359 7.49561 23.3624 7.44668 23.4805C7.39775 23.5986 7.32604 23.7059 7.23564 23.7962C7.14524 23.8866 7.03792 23.9582 6.91982 24.0071C6.80172 24.056 6.67514 24.0811 6.54733 24.081ZM6.54733 20.1892H5.12873V23.1081H6.54782L6.54733 20.1892Z" fill="#878787"/>
<path d="M19.8099 22.121C18.7543 22.121 17.7224 21.808 16.8447 21.2215C15.967 20.6351 15.2829 19.8015 14.8789 18.8263C14.475 17.851 14.3693 16.7779 14.5752 15.7425C14.7812 14.7072 15.2895 13.7562 16.0359 13.0098C16.7823 12.2634 17.7333 11.755 18.7687 11.5491C19.804 11.3432 20.8771 11.4488 21.8524 11.8528C22.8276 12.2568 23.6612 12.9409 24.2477 13.8186C24.8341 14.6963 25.1471 15.7282 25.1471 16.7838C25.1455 18.1988 24.5826 19.5554 23.5821 20.5559C22.5815 21.5565 21.2249 22.1194 19.8099 22.121ZM19.8099 12.4195C18.9467 12.4195 18.1029 12.6755 17.3852 13.155C16.6675 13.6346 16.1082 14.3162 15.7778 15.1136C15.4475 15.9111 15.3611 16.7886 15.5295 17.6352C15.6979 18.4818 16.1135 19.2594 16.7239 19.8698C17.3343 20.4802 18.1119 20.8958 18.9585 21.0642C19.8051 21.2326 20.6826 21.1462 21.48 20.8159C22.2775 20.4855 22.9591 19.9261 23.4387 19.2084C23.9182 18.4907 24.1742 17.647 24.1742 16.7838C24.1729 15.6267 23.7127 14.5174 22.8945 13.6992C22.0763 12.881 20.967 12.4208 19.8099 12.4195Z" fill="#878787"/>
<path d="M19.8102 19.3991C19.293 19.3988 18.7875 19.2452 18.3576 18.9576C17.9277 18.6701 17.5927 18.2615 17.395 17.7836C17.1972 17.3057 17.1456 16.7799 17.2467 16.2726C17.3478 15.7654 17.597 15.2995 17.9628 14.9339C18.3286 14.5683 18.7947 14.3193 19.302 14.2185C19.8092 14.1177 20.335 14.1696 20.8128 14.3676C21.2906 14.5656 21.699 14.9008 21.9863 15.3309C22.2737 15.761 22.427 16.2665 22.427 16.7838C22.4262 17.4774 22.1502 18.1424 21.6596 18.6328C21.169 19.1231 20.5038 19.3987 19.8102 19.3991ZM19.8102 15.1414C19.4854 15.1417 19.168 15.2382 18.8981 15.4189C18.6282 15.5995 18.418 15.8561 18.2939 16.1563C18.1698 16.4564 18.1375 16.7866 18.201 17.1051C18.2645 17.4236 18.4211 17.7161 18.6508 17.9456C18.8806 18.1752 19.1732 18.3314 19.4918 18.3947C19.8103 18.4579 20.1405 18.4253 20.4405 18.301C20.7405 18.1766 20.9969 17.9661 21.1773 17.6961C21.3577 17.426 21.454 17.1085 21.454 16.7838C21.4535 16.3481 21.2801 15.9304 20.9719 15.6225C20.6637 15.3145 20.2459 15.1415 19.8102 15.1414Z" fill="#878787"/>
<path d="M19.8102 15.1414C19.6812 15.1414 19.5575 15.0902 19.4662 14.999C19.375 14.9077 19.3237 14.784 19.3237 14.655V11.9306C19.3237 11.8016 19.375 11.6779 19.4662 11.5866C19.5575 11.4954 19.6812 11.4442 19.8102 11.4442C19.9392 11.4442 20.063 11.4954 20.1542 11.5866C20.2455 11.6779 20.2967 11.8016 20.2967 11.9306V14.655C20.2967 14.784 20.2455 14.9077 20.1542 14.999C20.063 15.0902 19.9392 15.1414 19.8102 15.1414Z" fill="#878787"/>
<path d="M19.8102 22.121C19.6812 22.121 19.5575 22.0697 19.4662 21.9785C19.375 21.8873 19.3237 21.7635 19.3237 21.6345V18.9102C19.3237 18.7812 19.375 18.6574 19.4662 18.5662C19.5575 18.475 19.6812 18.4237 19.8102 18.4237C19.9392 18.4237 20.063 18.475 20.1542 18.5662C20.2455 18.6574 20.2967 18.7812 20.2967 18.9102V21.6345C20.2967 21.7635 20.2455 21.8873 20.1542 21.9785C20.063 22.0697 19.9392 22.121 19.8102 22.121Z" fill="#878787"/>
<path d="M18.305 15.7651C18.1759 15.765 18.0522 15.7138 17.961 15.6225L16.036 13.6975C15.9474 13.6057 15.8983 13.4829 15.8994 13.3553C15.9005 13.2278 15.9517 13.1057 16.0419 13.0155C16.1321 12.9253 16.2541 12.8742 16.3817 12.8731C16.5092 12.872 16.6321 12.921 16.7239 13.0096L18.6489 14.9351C18.7169 15.0032 18.7632 15.0898 18.782 15.1842C18.8008 15.2785 18.7911 15.3763 18.7543 15.4652C18.7175 15.5541 18.6552 15.6301 18.5752 15.6835C18.4952 15.737 18.4012 15.7655 18.305 15.7656V15.7651Z" fill="#878787"/>
<path d="M23.2405 20.7005C23.1115 20.7005 22.9878 20.6492 22.8966 20.558L20.9715 18.6324C20.8829 18.5407 20.8339 18.4178 20.835 18.2902C20.8361 18.1627 20.8873 18.0407 20.9774 17.9505C21.0676 17.8603 21.1897 17.8091 21.3172 17.808C21.4448 17.8069 21.5677 17.8559 21.6594 17.9445L23.5844 19.8696C23.6525 19.9376 23.6988 20.0243 23.7175 20.1186C23.7363 20.213 23.7267 20.3108 23.6899 20.3997C23.653 20.4886 23.5907 20.5645 23.5107 20.618C23.4307 20.6714 23.3367 20.7 23.2405 20.7V20.7005Z" fill="#878787"/>
<path d="M17.6815 17.2702H14.9572C14.8282 17.2702 14.7044 17.219 14.6132 17.1277C14.522 17.0365 14.4707 16.9127 14.4707 16.7837C14.4707 16.6547 14.522 16.531 14.6132 16.4397C14.7044 16.3485 14.8282 16.2972 14.9572 16.2972H17.6815C17.8105 16.2972 17.9343 16.3485 18.0255 16.4397C18.1167 16.531 18.168 16.6547 18.168 16.7837C18.168 16.9127 18.1167 17.0365 18.0255 17.1277C17.9343 17.219 17.8105 17.2702 17.6815 17.2702Z" fill="#878787"/>
<path d="M24.661 17.2702H21.9406C21.8116 17.2702 21.6878 17.219 21.5966 17.1277C21.5054 17.0365 21.4541 16.9127 21.4541 16.7837C21.4541 16.6547 21.5054 16.531 21.5966 16.4397C21.6878 16.3485 21.8116 16.2972 21.9406 16.2972H24.6649C24.7939 16.2972 24.9177 16.3485 25.0089 16.4397C25.1001 16.531 25.1514 16.6547 25.1514 16.7837C25.1514 16.9127 25.1001 17.0365 25.0089 17.1277C24.9177 17.219 24.7939 17.2702 24.6649 17.2702H24.661Z" fill="#878787"/>
<path d="M16.3799 20.7005C16.2837 20.7005 16.1897 20.6719 16.1097 20.6185C16.0297 20.565 15.9674 20.489 15.9306 20.4002C15.8938 20.3113 15.8841 20.2135 15.9029 20.1191C15.9217 20.0248 15.968 19.9381 16.036 19.8701L17.961 17.945C18.0531 17.8585 18.1753 17.8113 18.3016 17.8132C18.4279 17.8152 18.5486 17.8662 18.6379 17.9555C18.7273 18.0448 18.7784 18.1654 18.7805 18.2918C18.7825 18.4181 18.7353 18.5403 18.6489 18.6324L16.7239 20.5575C16.6788 20.6027 16.6252 20.6387 16.5661 20.6632C16.5071 20.6877 16.4439 20.7004 16.3799 20.7005Z" fill="#878787"/>
<path d="M21.3155 15.7651C21.2193 15.765 21.1252 15.7365 21.0453 15.683C20.9653 15.6296 20.9029 15.5536 20.8661 15.4647C20.8293 15.3759 20.8197 15.2781 20.8384 15.1837C20.8572 15.0893 20.9035 15.0027 20.9715 14.9346L22.8966 13.0096C22.9883 12.921 23.1112 12.872 23.2388 12.8731C23.3663 12.8742 23.4883 12.9253 23.5785 13.0155C23.6687 13.1057 23.7199 13.2278 23.721 13.3553C23.7221 13.4829 23.6731 13.6057 23.5845 13.6975L21.6594 15.6225C21.5682 15.7138 21.4445 15.765 21.3155 15.7651Z" fill="#878787"/>
</svg>
