<svg width="36" height="36" viewBox="0 0 36 36" fill="none" xmlns="http://www.w3.org/2000/svg">
<path d="M31.7109 0H4.28906C3.99783 0 3.76172 0.236039 3.76172 0.527344V35.4727C3.76172 35.764 3.99783 36 4.28906 36H31.7109C32.0022 36 32.2383 35.764 32.2383 35.4727V0.527344C32.2383 0.236039 32.0022 0 31.7109 0ZM4.81641 3.16406H9.03516C9.90752 3.16406 10.6172 3.8738 10.6172 4.74609V5.45231C9.00309 5.68427 7.72334 6.96403 7.49137 8.57812H7.27734C6.98611 8.57812 6.75 8.81416 6.75 9.10547C6.75 9.39677 6.98611 9.63281 7.27734 9.63281H15.0117C15.303 9.63281 15.5391 9.39677 15.5391 9.10547C15.5391 8.81416 15.303 8.57812 15.0117 8.57812H14.7977C14.5657 6.96403 13.286 5.68427 11.6719 5.45231V4.74609C11.6719 3.29217 10.4891 2.10938 9.03516 2.10938H4.81641V1.05469H17.4727V32.8359H4.81641V3.16406ZM11.1445 6.46875C12.4179 6.46875 13.4832 7.37606 13.7282 8.57812H8.56083C8.80587 7.37606 9.87117 6.46875 11.1445 6.46875ZM31.1836 34.9453H4.81641V33.8906H31.1836V34.9453ZM31.1836 32.8359H18.5273V1.05469H31.1836V32.8359Z" fill="#878787"/>
<path d="M20.1094 13.2539C19.8181 13.2539 19.582 13.4899 19.582 13.7812V20.1094C19.582 20.4007 19.8181 20.6367 20.1094 20.6367C20.4007 20.6367 20.6367 20.4007 20.6367 20.1094V13.7812C20.6367 13.4899 20.4007 13.2539 20.1094 13.2539Z" fill="#878787"/>
<path d="M15.8906 13.2539C15.5994 13.2539 15.3633 13.4899 15.3633 13.7812V20.1094C15.3633 20.4007 15.5994 20.6367 15.8906 20.6367C16.1819 20.6367 16.418 20.4007 16.418 20.1094V13.7812C16.418 13.4899 16.1819 13.2539 15.8906 13.2539Z" fill="#878787"/>
<path d="M11.1445 10.6875C10.8533 10.6875 10.6172 10.9235 10.6172 11.2148V12.2695C10.6172 12.5608 10.8533 12.7969 11.1445 12.7969C11.4358 12.7969 11.6719 12.5608 11.6719 12.2695V11.2148C11.6719 10.9235 11.4358 10.6875 11.1445 10.6875Z" fill="#878787"/>
<path d="M9.03516 10.6875C8.74392 10.6875 8.50781 10.9235 8.50781 11.2148V12.2695C8.50781 12.5608 8.74392 12.7969 9.03516 12.7969C9.32639 12.7969 9.5625 12.5608 9.5625 12.2695V11.2148C9.5625 10.9235 9.32639 10.6875 9.03516 10.6875Z" fill="#878787"/>
<path d="M13.2539 10.6875C12.9627 10.6875 12.7266 10.9235 12.7266 11.2148V12.2695C12.7266 12.5608 12.9627 12.7969 13.2539 12.7969C13.5451 12.7969 13.7812 12.5608 13.7812 12.2695V11.2148C13.7812 10.9235 13.5451 10.6875 13.2539 10.6875Z" fill="#878787"/>
<path d="M11.1445 13.8516C10.8533 13.8516 10.6172 14.0876 10.6172 14.3789V15.4336C10.6172 15.7249 10.8533 15.9609 11.1445 15.9609C11.4358 15.9609 11.6719 15.7249 11.6719 15.4336V14.3789C11.6719 14.0876 11.4358 13.8516 11.1445 13.8516Z" fill="#878787"/>
<path d="M9.03516 13.8516C8.74392 13.8516 8.50781 14.0876 8.50781 14.3789V15.4336C8.50781 15.7249 8.74392 15.9609 9.03516 15.9609C9.32639 15.9609 9.5625 15.7249 9.5625 15.4336V14.3789C9.5625 14.0876 9.32639 13.8516 9.03516 13.8516Z" fill="#878787"/>
<path d="M13.2539 13.8516C12.9627 13.8516 12.7266 14.0876 12.7266 14.3789V15.4336C12.7266 15.7249 12.9627 15.9609 13.2539 15.9609C13.5451 15.9609 13.7812 15.7249 13.7812 15.4336V14.3789C13.7812 14.0876 13.5451 13.8516 13.2539 13.8516Z" fill="#878787"/>
<path d="M11.1445 17.0156C10.8533 17.0156 10.6172 17.2517 10.6172 17.543V18.5977C10.6172 18.889 10.8533 19.125 11.1445 19.125C11.4358 19.125 11.6719 18.889 11.6719 18.5977V17.543C11.6719 17.2517 11.4358 17.0156 11.1445 17.0156Z" fill="#878787"/>
<path d="M9.03516 17.0156C8.74392 17.0156 8.50781 17.2517 8.50781 17.543V18.5977C8.50781 18.889 8.74392 19.125 9.03516 19.125C9.32639 19.125 9.5625 18.889 9.5625 18.5977V17.543C9.5625 17.2517 9.32639 17.0156 9.03516 17.0156Z" fill="#878787"/>
<path d="M13.2539 17.0156C12.9627 17.0156 12.7266 17.2517 12.7266 17.543V18.5977C12.7266 18.889 12.9627 19.125 13.2539 19.125C13.5451 19.125 13.7812 18.889 13.7812 18.5977V17.543C13.7812 17.2517 13.5451 17.0156 13.2539 17.0156Z" fill="#878787"/>
<path d="M11.1445 20.1797C10.8533 20.1797 10.6172 20.4157 10.6172 20.707V21.7617C10.6172 22.053 10.8533 22.2891 11.1445 22.2891C11.4358 22.2891 11.6719 22.053 11.6719 21.7617V20.707C11.6719 20.4157 11.4358 20.1797 11.1445 20.1797Z" fill="#878787"/>
<path d="M9.03516 20.1797C8.74392 20.1797 8.50781 20.4157 8.50781 20.707V21.7617C8.50781 22.053 8.74392 22.2891 9.03516 22.2891C9.32639 22.2891 9.5625 22.053 9.5625 21.7617V20.707C9.5625 20.4157 9.32639 20.1797 9.03516 20.1797Z" fill="#878787"/>
<path d="M13.2539 20.1797C12.9627 20.1797 12.7266 20.4157 12.7266 20.707V21.7617C12.7266 22.053 12.9627 22.2891 13.2539 22.2891C13.5451 22.2891 13.7812 22.053 13.7812 21.7617V20.707C13.7812 20.4157 13.5451 20.1797 13.2539 20.1797Z" fill="#878787"/>
<path d="M11.1445 23.3438C10.8533 23.3438 10.6172 23.5798 10.6172 23.8711V24.9258C10.6172 25.2171 10.8533 25.4531 11.1445 25.4531C11.4358 25.4531 11.6719 25.2171 11.6719 24.9258V23.8711C11.6719 23.5798 11.4358 23.3438 11.1445 23.3438Z" fill="#878787"/>
<path d="M9.03516 23.3438C8.74392 23.3438 8.50781 23.5798 8.50781 23.8711V24.9258C8.50781 25.2171 8.74392 25.4531 9.03516 25.4531C9.32639 25.4531 9.5625 25.2171 9.5625 24.9258V23.8711C9.5625 23.5798 9.32639 23.3438 9.03516 23.3438Z" fill="#878787"/>
<path d="M13.2539 23.3438C12.9627 23.3438 12.7266 23.5798 12.7266 23.8711V24.9258C12.7266 25.2171 12.9627 25.4531 13.2539 25.4531C13.5451 25.4531 13.7812 25.2171 13.7812 24.9258V23.8711C13.7812 23.5798 13.5451 23.3438 13.2539 23.3438Z" fill="#878787"/>
<path d="M11.1445 26.5078C10.8533 26.5078 10.6172 26.7439 10.6172 27.0352V28.0898C10.6172 28.3811 10.8533 28.6172 11.1445 28.6172C11.4358 28.6172 11.6719 28.3811 11.6719 28.0898V27.0352C11.6719 26.7439 11.4358 26.5078 11.1445 26.5078Z" fill="#878787"/>
<path d="M9.03516 26.5078C8.74392 26.5078 8.50781 26.7439 8.50781 27.0352V28.0898C8.50781 28.3811 8.74392 28.6172 9.03516 28.6172C9.32639 28.6172 9.5625 28.3811 9.5625 28.0898V27.0352C9.5625 26.7439 9.32639 26.5078 9.03516 26.5078Z" fill="#878787"/>
<path d="M13.2539 26.5078C12.9627 26.5078 12.7266 26.7439 12.7266 27.0352V28.0898C12.7266 28.3811 12.9627 28.6172 13.2539 28.6172C13.5451 28.6172 13.7812 28.3811 13.7812 28.0898V27.0352C13.7812 26.7439 13.5451 26.5078 13.2539 26.5078Z" fill="#878787"/>
<path d="M11.1445 29.6719C10.8533 29.6719 10.6172 29.9079 10.6172 30.1992V31.2539C10.6172 31.5452 10.8533 31.7812 11.1445 31.7812C11.4358 31.7812 11.6719 31.5452 11.6719 31.2539V30.1992C11.6719 29.9079 11.4358 29.6719 11.1445 29.6719Z" fill="#878787"/>
<path d="M9.03516 29.6719C8.74392 29.6719 8.50781 29.9079 8.50781 30.1992V31.2539C8.50781 31.5452 8.74392 31.7812 9.03516 31.7812C9.32639 31.7812 9.5625 31.5452 9.5625 31.2539V30.1992C9.5625 29.9079 9.32639 29.6719 9.03516 29.6719Z" fill="#878787"/>
<path d="M13.2539 29.6719C12.9627 29.6719 12.7266 29.9079 12.7266 30.1992V31.2539C12.7266 31.5452 12.9627 31.7812 13.2539 31.7812C13.5451 31.7812 13.7812 31.5452 13.7812 31.2539V30.1992C13.7812 29.9079 13.5451 29.6719 13.2539 29.6719Z" fill="#878787"/>
</svg>
