<svg width="36" height="36" viewBox="0 0 36 36" fill="none" xmlns="http://www.w3.org/2000/svg">
<path d="M31.8395 16.3615H28.4327C28.3772 15.602 28.0365 14.8916 27.4791 14.3727C26.9218 13.8538 26.1888 13.5648 25.4273 13.5636C24.9909 13.5629 24.5597 13.6578 24.1639 13.8418C23.8328 13.2182 23.3296 12.7029 22.7142 12.3568C22.0989 12.0108 21.3971 11.8486 20.6923 11.8896C19.9875 11.9305 19.3092 12.1729 18.7381 12.5879C18.1669 13.0029 17.7269 13.5731 17.4702 14.2307C16.8306 14.1956 16.1996 14.3914 15.6923 14.7825C15.185 15.1736 14.8351 15.734 14.7063 16.3615H11.344V13.8536C11.344 13.723 11.2921 13.5978 11.1998 13.5055C11.1075 13.4132 10.9823 13.3614 10.8518 13.3614H10.6175V9.93773C10.6175 9.80719 10.5657 9.682 10.4733 9.5897C10.381 9.49739 10.2559 9.44554 10.1253 9.44554H9.84407V5.8897C9.84407 5.56149 9.97445 5.24673 10.2065 5.01465C10.4386 4.78257 10.7534 4.6522 11.0816 4.6522H16.2718C16.5213 4.65281 16.7649 4.729 16.9703 4.87073C17.1757 5.01245 17.3334 5.21307 17.4226 5.44616C16.5523 5.58407 15.7597 6.02759 15.1869 6.69714C14.6141 7.3667 14.2986 8.21846 14.2971 9.0996C14.2971 9.23014 14.349 9.35533 14.4413 9.44763C14.5336 9.53993 14.6588 9.59179 14.7893 9.59179H21.2113C21.3419 9.59179 21.4671 9.53993 21.5594 9.44763C21.6517 9.35533 21.7035 9.23014 21.7035 9.0996C21.7019 8.19502 21.3695 7.32226 20.769 6.64575C20.1685 5.96924 19.3413 5.53569 18.4433 5.42676C18.3367 4.92974 18.063 4.48423 17.6679 4.1644C17.2728 3.84458 16.7801 3.66972 16.2718 3.66895H11.0816C10.4923 3.66895 9.92715 3.90304 9.51047 4.31972C9.09379 4.7364 8.85969 5.30154 8.85969 5.89082V9.44554H8.57844C8.44791 9.44554 8.32272 9.49739 8.23042 9.5897C8.13811 9.682 8.08626 9.80719 8.08626 9.93773V13.3614H7.85198C7.72144 13.3614 7.59625 13.4132 7.50395 13.5055C7.41164 13.5978 7.35979 13.723 7.35979 13.8536V16.3615H4.16113C4.0306 16.3615 3.90541 16.4133 3.8131 16.5056C3.7208 16.5979 3.66895 16.7231 3.66895 16.8537V19.1037C3.66895 19.2342 3.7208 19.3594 3.8131 19.4517C3.90541 19.544 4.0306 19.5959 4.16113 19.5959H4.80801L5.69141 26.0905C5.83246 27.0974 6.31366 28.0259 7.05511 28.7216C7.79657 29.4174 8.75369 29.8387 9.76757 29.9155L9.14882 31.675C9.12276 31.7492 9.11486 31.8286 9.1258 31.9066C9.13674 31.9845 9.16619 32.0587 9.21169 32.1229C9.25719 32.1871 9.31741 32.2394 9.38731 32.2756C9.45721 32.3117 9.53476 32.3306 9.61345 32.3306H11.3347C11.4282 32.3305 11.5198 32.3039 11.5987 32.2537C11.6777 32.2036 11.7407 32.132 11.7805 32.0474L12.7727 29.9307H23.2271L24.2193 32.0474C24.2591 32.132 24.3221 32.2036 24.4011 32.2537C24.48 32.3039 24.5716 32.3305 24.6651 32.3306H26.3864C26.465 32.3306 26.5426 32.3117 26.6125 32.2756C26.6824 32.2394 26.7426 32.1871 26.7881 32.1229C26.8336 32.0587 26.8631 31.9845 26.874 31.9066C26.8849 31.8286 26.877 31.7492 26.851 31.675L26.2322 29.9155C27.2461 29.8387 28.2032 29.4174 28.9447 28.7216C29.6861 28.0259 30.1673 27.0974 30.3084 26.0905L31.1909 19.5959H31.8378C31.9684 19.5959 32.0935 19.544 32.1858 19.4517C32.2782 19.3594 32.33 19.2342 32.33 19.1037V16.8537C32.33 16.7234 32.2784 16.5985 32.1864 16.5062C32.0945 16.414 31.9697 16.3619 31.8395 16.3615ZM20.6739 8.60854H15.3262C15.4414 7.98336 15.7719 7.41829 16.2605 7.01154C16.749 6.60479 17.3646 6.38206 18.0003 6.38206C18.636 6.38206 19.2516 6.60479 19.7402 7.01154C20.2287 7.41829 20.5593 7.98336 20.6744 8.60854H20.6739ZM17.7039 15.2534C17.8285 15.2812 17.959 15.2595 18.068 15.1928C18.1769 15.1262 18.2556 15.0198 18.2875 14.8962C18.433 14.3319 18.7568 13.8298 19.2108 13.4645C19.6648 13.0992 20.2246 12.8903 20.8069 12.8689C21.3892 12.8476 21.9628 13.0148 22.4423 13.3459C22.9219 13.6769 23.2817 14.154 23.4681 14.706C23.4929 14.7795 23.5348 14.8461 23.5903 14.9004C23.6457 14.9546 23.7132 14.995 23.7872 15.0182C23.8612 15.0414 23.9397 15.0468 24.0162 15.034C24.0927 15.0211 24.1651 14.9904 24.2275 14.9443C24.5748 14.6865 24.9959 14.5476 25.4284 14.548C25.9293 14.5486 26.4123 14.734 26.785 15.0686C27.1577 15.4032 27.3939 15.8636 27.4484 16.3615H15.7239C15.8565 15.9633 16.133 15.6289 16.4993 15.4239C16.8655 15.2189 17.2951 15.1581 17.7039 15.2534ZM9.06951 10.4299H9.63201V13.3614H9.06951V10.4299ZM8.34416 14.3458H10.3596V16.3615H8.34416V14.3458ZM11.0225 31.3473H10.309L10.8068 29.9318H11.686L11.0225 31.3473ZM24.9781 31.3473L24.3147 29.9318H25.1939L25.6917 31.3473H24.9781ZM29.3327 25.9577C29.2176 26.7847 28.8079 27.5425 28.179 28.0917C27.5501 28.6409 26.7441 28.9448 25.9091 28.9474H10.0916C9.25658 28.9448 8.45058 28.6409 7.82164 28.0917C7.19269 27.5425 6.78303 26.7847 6.66791 25.9577L5.80251 19.5959H30.1981L29.3327 25.9577ZM31.3473 18.6115H4.65332V17.3459H31.3473V18.6115Z" fill="#878787"/>
</svg>
