<svg width="36" height="36" viewBox="0 0 36 36" fill="none" xmlns="http://www.w3.org/2000/svg">
<path d="M18.0114 5.77511C11.5245 5.75834 5.30064 8.33206 0.726803 12.9219C0.491148 13.1486 0.396974 13.4843 0.479653 13.8002C0.562773 14.1161 0.809924 14.3631 1.12649 14.4456C1.44305 14.5281 1.77951 14.4342 2.00721 14.1995C10.8449 5.37674 25.1779 5.37674 34.0156 14.1995C34.3711 14.5418 34.9357 14.5369 35.285 14.1884C35.6343 13.8399 35.6391 13.2761 35.296 12.9219C30.7222 8.33206 24.4984 5.75834 18.0114 5.77511Z" fill="#878787"/>
<path d="M17.9999 11.175C12.9444 11.1622 8.09394 13.174 4.52955 16.7613C4.18578 17.1177 4.19066 17.6839 4.54063 18.0341C4.8906 18.3843 5.45675 18.3892 5.81248 18.0452C12.5421 11.3058 23.4577 11.3058 30.1873 18.0452C30.5431 18.3892 31.1092 18.3843 31.4592 18.0341C31.8091 17.6839 31.814 17.1177 31.4703 16.7613C27.9059 13.174 23.0554 11.1622 17.9999 11.175Z" fill="#878787"/>
<path d="M18.0267 22.05C15.8632 22.0464 13.7869 22.9109 12.2568 24.4524C11.912 24.8096 11.9146 25.3797 12.2634 25.7334C12.6118 26.0871 13.1774 26.0938 13.5342 25.7485C16.0172 23.253 20.0361 23.253 22.5192 25.7485C22.7476 25.9854 23.0848 26.0791 23.4013 25.9943C23.7178 25.9096 23.9648 25.6593 24.0462 25.34C24.1281 25.0202 24.0325 24.6812 23.7966 24.4524C22.2664 22.9109 20.1902 22.0464 18.0267 22.05Z" fill="#878787"/>
<path d="M25.1695 18.6703C20.8034 15.9766 15.2724 15.9766 10.9063 18.6703C10.0127 19.2144 9.18502 19.8588 8.43995 20.5904C8.08642 20.9408 8.08642 21.5086 8.43995 21.859C8.79349 22.209 9.36621 22.209 9.71974 21.859C10.3101 21.2755 10.9611 20.7555 11.662 20.3078C15.5411 17.8182 20.533 17.8182 24.4121 20.3078C25.1134 20.7564 25.7648 21.2777 26.3552 21.8625C26.7087 22.2125 27.2815 22.2125 27.635 21.8625C27.9881 21.5121 27.9881 20.9443 27.635 20.5939C26.8904 19.861 26.0631 19.2157 25.1695 18.6703Z" fill="#878787"/>
<path d="M18.0002 28.425C17.0062 28.425 16.2002 29.2309 16.2002 30.225C16.2002 31.219 17.0062 32.025 18.0002 32.025C18.9942 32.025 19.8002 31.219 19.8002 30.225C19.8002 29.2309 18.9942 28.425 18.0002 28.425Z" fill="#878787"/>
</svg>
