<svg width="36" height="37" viewBox="0 0 36 37" fill="none" xmlns="http://www.w3.org/2000/svg">
<path d="M1.6875 34.8955H18.5625H31.5V33.7705H19.125V1.70801C19.125 1.39751 18.873 1.14551 18.5625 1.14551H1.6875C1.377 1.14551 1.125 1.39751 1.125 1.70801V34.333C1.125 34.6435 1.377 34.8955 1.6875 34.8955ZM2.25 2.27051H9.5625V3.95801H6.75C6.4395 3.95801 6.1875 4.21001 6.1875 4.52051V6.77051C6.1875 7.08101 6.4395 7.33301 6.75 7.33301H13.5C13.8105 7.33301 14.0625 7.08101 14.0625 6.77051V4.52051C14.0625 4.21001 13.8105 3.95801 13.5 3.95801H10.6875V2.27051H18V33.7705H10.6875V23.083H11.8125V21.958H10.6875V20.2705H9.5625V33.7705H2.25V2.27051ZM12.9375 5.08301V6.20801H7.3125V5.08301H12.9375Z" fill="#878787"/>
<path d="M33.1875 33.7705H34.875V34.8955H33.1875V33.7705Z" fill="#878787"/>
<path d="M7.3125 8.45801H8.4375V10.1455H7.3125V8.45801Z" fill="#878787"/>
<path d="M7.3125 11.2705H8.4375V12.3955H7.3125V11.2705Z" fill="#878787"/>
<path d="M9.5625 8.45801H10.6875V11.833H9.5625V8.45801Z" fill="#878787"/>
<path d="M9.5625 12.958H10.6875V14.083H9.5625V12.958Z" fill="#878787"/>
<path d="M11.8125 8.45801H12.9375V10.1455H11.8125V8.45801Z" fill="#878787"/>
<path d="M11.8125 11.2705H12.9375V12.3955H11.8125V11.2705Z" fill="#878787"/>
<path d="M34.3125 19.708H32.4799C32.9338 19.0572 33.1875 18.2764 33.1875 17.458C33.1875 17.1475 32.9355 16.8955 32.625 16.8955H22.5C22.1895 16.8955 21.9375 17.1475 21.9375 17.458C21.9375 18.2764 22.1912 19.0572 22.6451 19.708H20.8125C20.502 19.708 20.25 19.96 20.25 20.2705V27.0205C20.25 27.331 20.502 27.583 20.8125 27.583H34.3125C34.623 27.583 34.875 27.331 34.875 27.0205V20.2705C34.875 19.96 34.623 19.708 34.3125 19.708ZM23.1193 18.0205H32.0063C31.869 18.6944 31.4803 19.2906 30.9184 19.708H24.2072C23.6452 19.2906 23.256 18.6944 23.1193 18.0205ZM33.75 20.833V21.958H21.375V20.833H33.75ZM21.375 26.458V23.083H33.75V26.458H21.375Z" fill="#878787"/>
<path d="M25.875 24.208H29.8125V25.333H25.875V24.208Z" fill="#878787"/>
<path d="M27 14.6168V15.7705H28.125V14.6168C31.5838 14.3294 34.3125 11.4274 34.3125 7.89551C34.3125 4.17345 31.2846 1.14551 27.5625 1.14551C23.8404 1.14551 20.8125 4.17345 20.8125 7.89551C20.8125 11.4274 23.5412 14.3294 27 14.6168ZM27.5625 2.27051C28.3241 2.27051 29.0498 2.42407 29.7129 2.6997L25.4773 6.93532L26.2727 7.7307L30.7429 3.26051C32.2177 4.27582 33.1875 5.97345 33.1875 7.89551C33.1875 10.9971 30.6641 13.5205 27.5625 13.5205C24.4609 13.5205 21.9375 10.9971 21.9375 7.89551C21.9375 4.79388 24.4609 2.27051 27.5625 2.27051Z" fill="#878787"/>
<path d="M24.9116 10.875L29.9734 5.81323L30.7688 6.60861L25.707 11.6704L24.9116 10.875Z" fill="#878787"/>
<path d="M23.2241 9.18652L24.349 8.06169L25.1444 8.85719L24.0196 9.98202L23.2241 9.18652Z" fill="#878787"/>
</svg>
