<svg width="100" height="56" viewBox="0 0 100 56" fill="none" xmlns="http://www.w3.org/2000/svg">
<path fill-rule="evenodd" clip-rule="evenodd" d="M28.5008 36.2614C34.9735 34.7533 33.8948 28.3331 33.8948 22.266L37.5577 25.3822L40.6185 28.5172C41.2167 29.1964 41.8633 29.9148 42.5514 30.5205L44.3817 32.1161C45.4271 32.9486 46.5639 33.7365 47.7676 34.3429C52.0079 36.4788 57.681 36.9008 62.3803 35.59C65.7671 34.6453 68.8555 32.4919 70.1118 29.1076C70.8647 27.079 70.8488 24.9524 69.6424 23.1104C66.7052 18.6259 58.8605 16.3942 56.3758 12.3226C53.3176 7.31107 57.2195 4.55333 62.1769 4.55333C63.7653 4.55333 65.3995 4.86315 66.8517 5.34535C67.9971 5.72566 69.0784 6.26294 69.9866 7.02136C70.1846 7.18659 70.1531 7.25379 70.4136 7.32332V2.14809C68.1759 0.964064 64.8359 0.398692 62.1767 0.398692C58.2087 0.398692 54.9938 1.39339 52.5645 3.32373C52.3995 3.45481 52.3698 3.47106 52.2089 3.62431C52.0382 3.78707 51.9751 3.80634 51.8085 3.95271C51.309 4.39196 50.9287 4.92387 50.534 5.44821C48.204 8.54412 49.0389 12.1401 51.2112 14.9362L52.2081 16.053C53.0925 16.9447 54.1226 17.7008 55.1269 18.4552C57.5674 20.2883 61.8353 22.6629 63.5319 24.8474C64.5145 26.1124 64.8736 26.754 64.8736 28.4622C64.8736 29.2193 64.4313 30.0581 64.1017 30.5332C62.8643 32.3159 60.5791 33.2003 58.1676 33.2003C53.1162 33.2003 50.9463 31.7728 47.5801 28.4076C46.3991 27.2269 45.2095 25.665 44.1189 24.5797C43.1076 23.5736 42.13 22.6083 41.0152 21.7062C40.7667 21.5051 40.5713 21.345 40.3206 21.1616C39.3979 20.4867 38.4179 19.8612 37.345 19.3264C36.5 18.9052 35.7062 18.5136 34.8158 18.2111C34.503 18.1048 34.1513 18.0161 33.8947 17.8929V4.18927C34.2166 4.26431 34.3093 4.23636 34.6853 4.27326C37.9732 4.59602 42.423 6.46218 42.423 10.3121C42.423 12.8433 40.4978 14.6805 38.415 15.7072C38.2609 15.7831 38.1454 15.8303 37.9554 15.9037C37.8717 15.9359 37.761 15.9746 37.6932 16.0059L37.5955 16.0541C37.5011 16.1071 37.5224 16.0948 37.4663 16.1436C38.7265 16.1436 39.7683 16.6548 40.7474 17.309C41.1945 17.6078 41.597 17.8743 42.0378 18.2053C42.4891 18.5443 42.8785 18.8447 43.3085 19.1942L47.3581 22.8712C47.9598 23.3742 48.4842 23.9901 49.0369 24.5455L51.3351 26.6937C51.7281 27.0887 52.0918 27.4114 52.4995 27.7891L53.087 28.2948C54.0839 29.1394 55.1621 30.0757 56.4266 30.495C57.8525 30.9677 59.427 31.0307 60.6372 30.1301C61.1807 29.7256 61.7098 28.9965 61.8852 28.2437C60.8527 28.2437 59.2111 27.6 58.3723 27.0916C57.4001 26.5023 56.441 25.905 55.6345 25.0914L52.8573 22.1828C52.7063 21.9934 52.5617 21.882 52.3895 21.7031C51.6276 20.9122 50.9519 19.946 50.0766 19.2779L48.0456 17.5185C47.3883 16.9927 45.2536 15.5088 44.5368 15.3418C45.2426 14.2876 45.5553 14.2577 46.3834 12.5962C46.859 11.6421 47.4158 10.4172 47.4527 9.07286C47.4717 8.37737 47.4877 7.73214 47.3359 7.07575C46.0601 1.56138 38.5535 0.0222365 33.6759 0.034629C32.7956 0.0368321 32.3437 -0.0404142 31.4854 0.0306359C31.1412 0.0591385 30.6779 0.0355929 30.3221 0.0335275C29.8334 0.0307736 29.652 0.109672 29.2312 0.108984C28.2444 0.107194 28.5008 0.0696032 28.5008 1.63808V36.2618V36.2614Z" fill="#BA9D5F"/>
<path fill-rule="evenodd" clip-rule="evenodd" d="M0 55.6505H3.57178C3.73977 55.6505 3.79044 55.5998 3.79044 55.4319V44.9354C4.94445 44.9354 6.77895 44.868 6.77895 46.3933C6.77895 47.9315 6.38405 48.7259 4.81089 48.7259C4.8047 49.0057 4.60215 49.6508 4.52807 49.9008C4.41433 50.2842 4.31822 50.6698 4.22776 51.0583C5.50156 51.1643 5.36635 51.4864 5.80628 52.3954L7.36209 55.869C8.04945 55.869 8.59018 55.783 9.24423 55.7101C9.78027 55.6505 10.5876 55.5046 11.1525 55.5046C10.6392 54.5345 10.1731 53.5456 9.67039 52.5403C9.4151 52.0297 9.20829 51.5844 8.94212 51.0817C8.46116 50.1733 8.02811 50.2769 7.7994 49.9647C8.55052 49.948 9.24615 49.2998 9.71445 48.8183C11.1967 47.2948 11.3929 42.311 5.17537 42.311H0.000137694V55.6502L0 55.6505Z" fill="white"/>
<path fill-rule="evenodd" clip-rule="evenodd" d="M38.341 47.7054H38.4868C38.5341 48.2733 39.5114 50.6691 39.6531 51.277H37.2477L38.0769 48.6074C38.1707 48.3288 38.3176 47.9885 38.3412 47.7054H38.341ZM32.3639 55.6504H35.7898L36.373 53.8282H40.5277C40.5492 54.0868 41.0038 55.4271 41.1109 55.6504H45.047L40.7372 43.0494C40.4091 42.0542 40.8409 42.3112 37.3933 42.3112C37.1807 42.3112 37.2124 42.3997 37.1366 42.5647L32.6554 54.7757C32.5754 54.9773 32.3823 55.4257 32.3637 55.6503L32.3639 55.6504Z" fill="white"/>
<path fill-rule="evenodd" clip-rule="evenodd" d="M82.2219 47.6324L83.1603 50.3388C83.2447 50.593 83.4416 51.0425 83.4612 51.277H81.0558C81.2567 50.4152 81.9839 48.6552 82.2221 47.6324H82.2219ZM76.1719 55.6505H79.5978C79.7089 55.4405 80.1586 54.0954 80.1809 53.8282H84.3357L84.9297 55.6469L88.8549 55.6505C88.6661 54.84 85.8988 46.9646 85.4744 45.6917C85.2056 44.8857 84.4924 42.984 84.3355 42.3112H81.0554C80.9876 42.6024 80.8679 42.8581 80.7723 43.1215L76.1717 55.6505H76.1719Z" fill="white"/>
<path fill-rule="evenodd" clip-rule="evenodd" d="M21.2115 48.3614C21.2115 50.3195 21.2911 51.238 22.1336 52.906C23.2162 55.0492 25.0373 55.7291 27.2604 55.876C27.5911 55.8979 27.4361 55.9129 27.7185 55.8894C27.9198 55.8725 28.0754 55.8674 28.2819 55.8692C29.0043 55.8758 29.7785 55.7293 30.3392 55.5938C30.6409 55.5208 31.9266 55.1749 31.9266 54.8486V48.9444H28.5007V53.0263C28.1476 53.0558 28.3087 53.0993 27.6989 53.0993C26.0518 53.0993 25.1476 50.7239 25.1476 49.0902C25.1476 47.818 25.2516 46.9726 26.01 46.0165C26.8991 44.8955 28.5489 44.6339 29.8243 44.9968C30.154 45.0907 30.3785 45.2743 30.6875 45.2999C30.7358 44.7184 31.4164 43.1403 31.4164 42.5299C31.0932 42.5031 30.6807 42.3173 30.3187 42.2427C28.0611 41.7767 25.6235 42.2189 23.7471 43.4618C22.3946 44.3578 21.2115 46.2512 21.2115 48.3612V48.3614Z" fill="white"/>
<path fill-rule="evenodd" clip-rule="evenodd" d="M12.4645 55.4319C12.4645 55.5999 12.5151 55.6505 12.6831 55.6505H19.9724V53.1723C19.9724 53.0043 19.9217 52.9536 19.7537 52.9536H16.2549V50.1837H19.3164V47.5596H16.2549V44.9356H19.535C19.5439 44.5427 19.7293 43.9387 19.812 43.6088C19.906 43.2324 20.0883 42.6702 20.1182 42.3114H12.4646V55.4319H12.4645Z" fill="white"/>
<path fill-rule="evenodd" clip-rule="evenodd" d="M92.2082 51.3499V55.6505C96.6509 55.6505 95.9996 55.9685 95.9985 54.557L95.9984 51.9327C95.9945 51.0597 96.091 50.9321 96.6059 49.9162C97.3937 48.3615 98.354 46.0394 99.1325 44.4977C99.2909 44.184 99.3969 43.9587 99.5491 43.6021C100.007 42.5282 100.48 42.5871 98.9849 42.459L96.5816 42.1654C96.4958 42.5336 96.2112 43.0838 96.0511 43.4572C95.8502 43.9261 95.6833 44.3378 95.4861 44.7875C95.3096 45.1901 94.4185 47.1291 94.3948 47.4136L92.3517 42.8234C92.2611 42.6168 92.1662 42.3619 92.0621 42.1654C91.5865 42.2762 88.3149 42.4997 88.2081 42.5993C88.09 42.7093 88.164 42.5701 88.1776 42.7032C88.1829 42.7546 92.2079 51.0719 92.2079 51.3497L92.2082 51.3499Z" fill="white"/>
<path fill-rule="evenodd" clip-rule="evenodd" d="M58.2404 45.5914C58.2404 46.8348 58.4905 48.1356 59.4779 48.8733C59.7582 49.0827 59.9719 49.2474 60.2944 49.4417C61.5795 50.2158 63.1243 50.5127 63.1243 51.9329C63.1243 53.5595 60.9552 53.3306 59.9434 52.9999L58.7507 52.516C58.5993 52.8319 58.4591 53.4515 58.3396 53.8541C58.2329 54.2134 57.9765 54.8828 57.9489 55.2129C58.4482 55.4771 59.9068 55.8337 60.6457 55.8691C61.7167 55.9205 62.7418 55.896 63.6945 55.6374C64.051 55.5406 64.5636 55.3163 64.8712 55.1377C65.9264 54.5254 66.8417 53.3422 66.8417 51.9327C66.8417 50.0878 66.5514 49.0958 64.8605 48.0825C64.3173 47.7569 63.7848 47.4843 63.2202 47.1717C62.3972 46.7159 62.0307 46.5625 62.0307 45.5912C62.0307 44.4032 63.9077 44.7099 64.6275 44.8897C65.0384 44.9924 65.267 45.1486 65.6025 45.2268C65.6386 44.7934 65.8556 44.3181 65.9762 43.9239C66.0809 43.5823 66.3315 42.9175 66.3315 42.5298C65.3362 42.447 65.662 42.0924 62.6869 42.0924C61.1229 42.0924 59.4849 42.8546 58.7348 44.0445C58.5005 44.4162 58.2404 45.0136 58.2404 45.5912V45.5914Z" fill="white"/>
<path fill-rule="evenodd" clip-rule="evenodd" d="M67.1334 44.9354H70.0491V55.6505H73.8394V44.9354C76.7693 44.9354 76.1746 45.29 76.5656 43.7255C76.6905 43.2258 76.7874 42.7982 76.9009 42.3114H67.1334V44.9354V44.9354Z" fill="white"/>
<path fill-rule="evenodd" clip-rule="evenodd" d="M45.7759 55.6505H53.2839V53.1723C53.2839 53.0043 53.2332 52.9536 53.0652 52.9536H49.5664V42.3114H45.7759V55.6507V55.6505Z" fill="white"/>
</svg>
