<svg width="100" height="56" viewBox="0 0 100 56" fill="none" xmlns="http://www.w3.org/2000/svg">
<path fill-rule="evenodd" clip-rule="evenodd" d="M28.5007 36.2613C34.9734 34.7533 33.8947 28.3331 33.8947 22.266L37.5576 25.3821L40.6184 28.5172C41.2166 29.1964 41.8632 29.9148 42.5513 30.5205L44.3816 32.1161C45.427 32.9486 46.5638 33.7364 47.7675 34.3429C52.0078 36.4788 57.6809 36.9008 62.3802 35.5899C65.767 34.6452 68.8554 32.4918 70.1117 29.1076C70.8646 27.0789 70.8487 24.9524 69.6423 23.1103C66.7051 18.6259 58.8604 16.3942 56.3757 12.3225C53.3176 7.31104 57.2194 4.5533 62.1768 4.5533C63.7652 4.5533 65.3994 4.86311 66.8516 5.34532C67.997 5.72563 69.0783 6.26291 69.9865 7.02133C70.1845 7.18656 70.153 7.25376 70.4135 7.32329V2.14806C68.1758 0.964033 64.8358 0.398661 62.1766 0.398661C58.2086 0.398661 54.9937 1.39336 52.5644 3.3237C52.3994 3.45478 52.3697 3.47103 52.2088 3.62428C52.0381 3.78704 51.975 3.80631 51.8084 3.95268C51.3089 4.39193 50.9286 4.92384 50.5339 5.44818C48.2039 8.54409 49.0388 12.1401 51.2111 14.9361L52.208 16.053C53.0924 16.9447 54.1225 17.7007 55.1269 18.4552C57.5673 20.2883 61.8352 22.6628 63.5318 24.8473C64.5144 26.1123 64.8735 26.754 64.8735 28.4622C64.8735 29.2193 64.4312 30.0581 64.1016 30.5331C62.8642 32.3159 60.579 33.2003 58.1675 33.2003C53.1161 33.2003 50.9462 31.7728 47.58 28.4076C46.399 27.2268 45.2094 25.665 44.1188 24.5797C43.1075 23.5735 42.1299 22.6083 41.0151 21.7061C40.7666 21.5051 40.5712 21.345 40.3205 21.1615C39.3978 20.4867 38.4178 19.8612 37.3449 19.3264C36.4999 18.9051 35.7061 18.5135 34.8157 18.211C34.5029 18.1047 34.1512 18.0161 33.8946 17.8928V4.18924C34.2165 4.26428 34.3092 4.23633 34.6852 4.27323C37.9731 4.59599 42.4229 6.46215 42.4229 10.3121C42.4229 12.8433 40.4977 14.6804 38.4149 15.7072C38.2608 15.7831 38.1453 15.8303 37.9553 15.9037C37.8716 15.9359 37.7609 15.9746 37.6931 16.0059L37.5954 16.0541C37.5011 16.1071 37.5223 16.0948 37.4662 16.1436C38.7264 16.1436 39.7682 16.6548 40.7473 17.309C41.1944 17.6078 41.5969 17.8742 42.0377 18.2053C42.489 18.5443 42.8784 18.8447 43.3084 19.1942L47.358 22.8712C47.9597 23.3741 48.4841 23.9901 49.0368 24.5455L51.335 26.6937C51.728 27.0887 52.0917 27.4113 52.4994 27.789L53.0869 28.2948C54.0838 29.1394 55.162 30.0757 56.4265 30.495C57.8524 30.9677 59.4269 31.0306 60.6371 30.1301C61.1806 29.7256 61.7097 28.9965 61.8851 28.2437C60.8526 28.2437 59.211 27.6 58.3722 27.0916C57.4 26.5023 56.4409 25.905 55.6344 25.0913L52.8572 22.1828C52.7062 21.9934 52.5616 21.882 52.3894 21.7031C51.6275 20.9122 50.9518 19.946 50.0765 19.2779L48.0455 17.5184C47.3882 16.9927 45.2535 15.5088 44.5367 15.3418C45.2425 14.2876 45.5552 14.2577 46.3833 12.5961C46.8589 11.6421 47.4157 10.4171 47.4526 9.07283C47.4716 8.37734 47.4876 7.73211 47.3358 7.07572C46.06 1.56135 38.5534 0.022206 33.6758 0.0345985C32.7955 0.0368016 32.3436 -0.0404447 31.4853 0.0306054C31.1411 0.059108 30.6778 0.0355624 30.322 0.0334969C29.8333 0.0307431 29.6519 0.109642 29.2311 0.108953C28.2443 0.107163 28.5007 0.0695727 28.5007 1.63805V36.2618V36.2613Z" fill="#BA9D5F"/>
<path fill-rule="evenodd" clip-rule="evenodd" d="M0 55.6505H3.57178C3.73977 55.6505 3.79044 55.5998 3.79044 55.4318V44.9354C4.94445 44.9354 6.77895 44.8679 6.77895 46.3933C6.77895 47.9315 6.38405 48.7259 4.81089 48.7259C4.8047 49.0057 4.60215 49.6508 4.52807 49.9008C4.41433 50.2841 4.31822 50.6698 4.22776 51.0583C5.50156 51.1643 5.36635 51.4864 5.80628 52.3954L7.36209 55.869C8.04945 55.869 8.59018 55.783 9.24423 55.7101C9.78027 55.6505 10.5876 55.5045 11.1525 55.5045C10.6392 54.5345 10.1731 53.5456 9.67039 52.5403C9.4151 52.0297 9.20829 51.5844 8.94212 51.0817C8.46116 50.1733 8.02811 50.2768 7.7994 49.9647C8.55052 49.948 9.24615 49.2998 9.71445 48.8183C11.1967 47.2948 11.3929 42.311 5.17537 42.311H0.000137694V55.6502L0 55.6505Z" fill="#BA9E60"/>
<path fill-rule="evenodd" clip-rule="evenodd" d="M38.3411 47.7053H38.4869C38.5341 48.2733 39.5115 50.6691 39.6532 51.277H37.2478L38.077 48.6074C38.1707 48.3288 38.3177 47.9884 38.3412 47.7053H38.3411ZM32.3639 55.6504H35.7899L36.373 53.8282H40.5278C40.5493 54.0868 41.0038 55.4271 41.1109 55.6504H45.047L40.7372 43.0493C40.4091 42.0542 40.8409 42.3112 37.3933 42.3112C37.1807 42.3112 37.2124 42.3997 37.1367 42.5647L32.6554 54.7757C32.5754 54.9772 32.3824 55.4257 32.3638 55.6503L32.3639 55.6504Z" fill="#BA9E60"/>
<path fill-rule="evenodd" clip-rule="evenodd" d="M82.2219 47.6324L83.1603 50.3388C83.2447 50.5929 83.4416 51.0425 83.4611 51.277H81.0558C81.2567 50.4152 81.9838 48.6552 82.222 47.6324H82.2219ZM76.1719 55.6504H79.5977C79.7088 55.4405 80.1586 54.0953 80.1809 53.8282H84.3356L84.9296 55.6469L88.8549 55.6504C88.6661 54.84 85.8987 46.9646 85.4744 45.6917C85.2056 44.8857 84.4923 42.984 84.3355 42.3112H81.0554C80.9876 42.6024 80.8678 42.8581 80.7723 43.1215L76.1716 55.6504H76.1719Z" fill="#BA9E60"/>
<path fill-rule="evenodd" clip-rule="evenodd" d="M21.2114 48.3614C21.2114 50.3195 21.291 51.2379 22.1336 52.906C23.2161 55.0492 25.0373 55.7291 27.2603 55.876C27.5911 55.8979 27.436 55.9129 27.7184 55.8894C27.9197 55.8724 28.0753 55.8673 28.2819 55.8691C29.0042 55.8757 29.7785 55.7292 30.3392 55.5937C30.6409 55.5208 31.9265 55.1749 31.9265 54.8486V48.9444H28.5007V53.0263C28.1475 53.0558 28.3086 53.0993 27.6989 53.0993C26.0518 53.0993 25.1475 50.7239 25.1475 49.0902C25.1475 47.818 25.2515 46.9726 26.0099 46.0164C26.899 44.8955 28.5489 44.6339 29.8242 44.9968C30.154 45.0907 30.3784 45.2743 30.6874 45.2999C30.7357 44.7184 31.4164 43.1403 31.4164 42.5299C31.0932 42.503 30.6806 42.3173 30.3187 42.2427C28.061 41.7767 25.6234 42.2188 23.7471 43.4618C22.3945 44.3578 21.2114 46.2512 21.2114 48.3612V48.3614Z" fill="#BA9E60"/>
<path fill-rule="evenodd" clip-rule="evenodd" d="M12.4644 55.4318C12.4644 55.5998 12.515 55.6505 12.683 55.6505H19.9723V53.1723C19.9723 53.0043 19.9216 52.9536 19.7536 52.9536H16.2548V50.1836H19.3163V47.5596H16.2548V44.9356H19.5349C19.5438 44.5427 19.7292 43.9387 19.8118 43.6087C19.9059 43.2324 20.0882 42.6702 20.1181 42.3114H12.4645V55.4318H12.4644Z" fill="#BA9E60"/>
<path fill-rule="evenodd" clip-rule="evenodd" d="M92.2083 51.3499V55.6505C96.651 55.6505 95.9997 55.9685 95.9986 54.557L95.9984 51.9327C95.9946 51.0597 96.0911 50.9321 96.606 49.9162C97.3938 48.3615 98.3541 46.0394 99.1326 44.4976C99.291 44.184 99.397 43.9587 99.5492 43.6021C100.008 42.5282 100.48 42.5871 98.985 42.4589L96.5817 42.1654C96.4959 42.5336 96.2113 43.0838 96.0512 43.4572C95.8503 43.9261 95.6834 44.3378 95.4862 44.7875C95.3097 45.1901 94.4185 47.1291 94.3949 47.4136L92.3518 42.8234C92.2612 42.6167 92.1663 42.3619 92.0622 42.1654C91.5866 42.2762 88.315 42.4997 88.2081 42.5992C88.0901 42.7093 88.1641 42.5701 88.1777 42.7032C88.1829 42.7546 92.208 51.0718 92.208 51.3497L92.2083 51.3499Z" fill="#BA9E60"/>
<path fill-rule="evenodd" clip-rule="evenodd" d="M58.2405 45.5914C58.2405 46.8347 58.4905 48.1355 59.4779 48.8733C59.7583 49.0827 59.972 49.2474 60.2945 49.4417C61.5796 50.2158 63.1244 50.5127 63.1244 51.9328C63.1244 53.5594 60.9553 53.3306 59.9435 52.9998L58.7508 52.516C58.5993 52.8318 58.4591 53.4515 58.3396 53.8541C58.2329 54.2133 57.9765 54.8828 57.949 55.2129C58.4483 55.4771 59.9069 55.8337 60.6457 55.8691C61.7167 55.9205 62.7418 55.896 63.6946 55.6374C64.051 55.5406 64.5637 55.3163 64.8713 55.1377C65.9264 54.5253 66.8417 53.3421 66.8417 51.9327C66.8417 50.0877 66.5514 49.0958 64.8606 48.0825C64.3173 47.7569 63.7849 47.4842 63.2202 47.1717C62.3972 46.7159 62.0308 46.5625 62.0308 45.5912C62.0308 44.4032 63.9077 44.7098 64.6276 44.8897C65.0385 44.9924 65.267 45.1485 65.6026 45.2267C65.6387 44.7934 65.8557 44.3181 65.9763 43.9239C66.0809 43.5823 66.3315 42.9175 66.3315 42.5297C65.3363 42.447 65.6621 42.0924 62.6869 42.0924C61.123 42.0924 59.485 42.8545 58.7348 44.0445C58.5006 44.4161 58.2405 45.0136 58.2405 45.5912V45.5914Z" fill="#BA9E60"/>
<path fill-rule="evenodd" clip-rule="evenodd" d="M67.1333 44.9354H70.049V55.6505H73.8393V44.9354C76.7691 44.9354 76.1744 45.29 76.5655 43.7255C76.6904 43.2258 76.7873 42.7981 76.9008 42.3114H67.1333V44.9354V44.9354Z" fill="#BA9E60"/>
<path fill-rule="evenodd" clip-rule="evenodd" d="M45.7759 55.6505H53.2838V53.1723C53.2838 53.0043 53.2331 52.9536 53.0651 52.9536H49.5663V42.3114H45.7759V55.6506V55.6505Z" fill="#BA9E60"/>
</svg>
