<svg width="141" height="111" viewBox="0 0 141 111" fill="none" xmlns="http://www.w3.org/2000/svg">
<path d="M26.5557 110.4C24.6557 110.2 23.3057 109.5 22.5057 108.3C21.7057 107.1 21.3057 105.6 21.3057 103.8C21.3057 101.6 21.8557 98.75 22.9557 95.25C24.1557 91.75 25.5557 88.05 27.1557 84.15C28.7557 80.15 30.2057 76.5 31.5057 73.2C33.4057 68.5 35.6557 62.8 38.2557 56.1C40.8557 49.4 43.7057 42.35 46.8057 34.95C50.0057 27.45 53.2557 20.25 56.5557 13.35L16.9557 13.5C12.9557 13.6 9.80566 14.55 7.50566 16.35C5.30566 18.15 4.20566 21.1 4.20566 25.2H0.605664V2.99999H63.4557V13.2C59.8557 20.7 56.7057 27.85 54.0057 34.65C51.4057 41.45 49.0557 48.3 46.9557 55.2C44.8557 62 42.8557 69.15 40.9557 76.65C39.0557 84.15 37.0057 92.35 34.8057 101.25C34.2057 103.65 33.2557 105.8 31.9557 107.7C30.7557 109.6 28.9557 110.5 26.5557 110.4ZM125.446 91.65C125.446 93.65 125.396 95.55 125.296 97.35C125.296 99.15 125.146 100.8 124.846 102.3C126.846 102.2 128.796 102.15 130.696 102.15C132.596 102.05 134.496 101.95 136.396 101.85V108H98.7455V103.05H99.7955C104.896 102.65 108.146 100.8 109.546 97.5C111.046 94.1 111.796 89.65 111.796 84.15V79.05H66.1955V71.7L120.496 0.599997H125.446V70.05L140.596 70.2V79.05H125.446V91.65ZM111.496 21.9L76.0955 69.3L111.796 69.75V21.9H111.496Z" fill="#1C1C1C"/>
</svg>
